<?xml version="1.0" encoding="UTF-8"?>
<svg width="26px" height="26px" viewBox="0 0 26 26" version="1.1" xmlns="http://www.w3.org/2000/svg" xmlns:xlink="http://www.w3.org/1999/xlink">
    <!-- Generator: Sketch 51.3 (57544) - http://www.bohemiancoding.com/sketch -->
    <title>Group</title>
    <desc>Created with Sketch.</desc>
    <defs></defs>
    <g id="Symbols" stroke="none" stroke-width="1" fill="none" fill-rule="evenodd">
        <g id="button/checkbox/check" transform="translate(1.000000, 1.000000)" fill-rule="nonzero">
            <g id="Group">
                <circle id="Oval-2" stroke="#E0AB9B" fill-opacity="0.7" fill="#FFFFFF" cx="12" cy="12" r="12"></circle>
                <g id="check-mark" transform="translate(5.000000, 7.000000)" fill="#000000">
                    <path d="M6.78989519,10.4982977 C6.10982254,11.1672341 5.00634559,11.1672341 4.32660117,10.4982977 L0.510054485,6.74424748 C-0.170018162,6.07563395 -0.170018162,4.99022658 0.510054485,4.32161305 C1.18979891,3.65267668 2.29327586,3.65267668 2.9733485,4.32161305 L5.24725936,6.55796548 C5.41891862,6.72649096 5.69757773,6.72649096 5.86956522,6.55796548 L12.0266515,0.501702278 C12.7063959,-0.167234093 13.8098729,-0.167234093 14.4899455,0.501702278 C14.8165248,0.822933787 15,1.25877553 15,1.71301949 C15,2.16726344 14.8165248,2.60310519 14.4899455,2.9243367 L6.78989519,10.4982977 Z" id="Shape"></path>
                </g>
            </g>
        </g>
    </g>
</svg>