<?xml version="1.0" encoding="utf-8"?>
<!-- Generator: Adobe Illustrator 22.1.0, SVG Export Plug-In . SVG Version: 6.00 Build 0)  -->
<svg version="1.1" id="Layer_1" xmlns="http://www.w3.org/2000/svg" xmlns:xlink="http://www.w3.org/1999/xlink" x="0px" y="0px"
	 viewBox="0 0 32 32" style="enable-background:new 0 0 32 32;" xml:space="preserve">
<path d="M16,0C7.1,0,0,7.1,0,16s7.1,16,16,16s16-7.1,16-16S24.8,0,16,0z M20.3,15.9h-2.8c0,4.4,0,9.9,0,9.9h-4.1c0,0,0-5.4,0-9.9
	h-1.9v-3.5h1.9v-2.3c0-1.6,0.8-4.2,4.2-4.2h3.1v3.4c0,0-1.8,0-2.2,0s-0.8,0.2-0.8,1v2.1h3.1L20.3,15.9z"/>
</svg>
