<svg xmlns="http://www.w3.org/2000/svg" width="18" height="29" viewBox="0 0 18 29">
  <path fill="none" stroke="#FFFFFF" stroke-width="1.733" d="M15.9998081,24.0223389 L15.9998081,1.50139618 C15.9998081,0.672197966 15.3073892,0 14.4532471,0 L1.54719577,0 C0.693053729,-8.33442303e-17 0.000634794768,0.672197966 0.000634794768,1.50139618 L0.000634794768,24.0223389 C-0.0182704746,24.665177 0.386649824,25.2483165 1.00756156,25.4724484 C1.6284733,25.6965803 2.32747164,25.5119248 2.74578053,25.0132603 L6.8093695,20.411481 C7.10322411,20.0726245 7.53621412,19.8770295 7.99248864,19.8770295 C8.44876317,19.8770295 8.88175318,20.0726245 9.17560779,20.411481 L13.2546624,24.9944929 C13.6708137,25.4901297 14.3646626,25.6755069 14.9834425,25.4563749 C15.6022223,25.2372429 16.0101424,24.66169 15.9998081,24.0223389 Z" transform="translate(1 1.7)"/>
</svg>
