<svg xmlns="http://www.w3.org/2000/svg" width="30" height="24" viewBox="0 0 30 24">
  <g fill="#000000">
    <path d="M14.9833333,0.484137931 C14.4895702,0.196399458 13.8757921,0.196399458 13.382029,0.484137931 L13.3105797,0.533793103 L6.19507246,6.26482759 L0.685072464,6.1737931 C0.547242204,6.17158197 0.414223366,6.22365946 0.315573104,6.31845379 C0.216922841,6.41324813 0.160812569,6.54290731 0.159710145,6.67862069 L-1.59187984e-16,16.3696552 C-0.00358243923,16.5045093 0.0496619689,16.6348138 0.147101449,16.7296552 C0.241407964,16.8275081 0.371568721,16.884132 0.508550725,16.8868966 L6.00594203,16.9655172 L12.9197101,23.4206897 C12.943368,23.4448254 12.9702293,23.4657039 12.9995652,23.4827586 C13.2435846,23.635446 13.5258286,23.7185238 13.8149275,23.7227586 C14.0892059,23.7271786 14.3599735,23.6616022 14.6008696,23.5324138 C15.1183577,23.2532543 15.4404697,22.7188855 15.4414493,22.137931 L15.7776812,1.89517241 C15.7913424,1.31805977 15.48765,0.778597962 14.9833333,0.484137931 Z"/>
    <path stroke="#000000" stroke-width="1.655" d="M21.8802899,2.71448276 C21.7061099,2.65313163 21.5119167,2.68792834 21.3708609,2.80576529 C21.2298052,2.92360225 21.1633165,3.10657721 21.1964407,3.28576529 C21.2295648,3.46495337 21.3572694,3.61313163 21.5314493,3.67448276 C25.1867267,4.95774926 27.6054627,8.39107862 27.5455617,12.2113503 C27.4856607,16.031622 24.9604353,19.3898092 21.2666667,20.5613793 C21.015014,20.6332184 20.857748,20.8790606 20.9006495,21.1335465 C20.943551,21.3880325 21.1730511,21.5706734 21.4347826,21.5586207 C21.4917744,21.5587673 21.5484586,21.5503961 21.6028986,21.5337931 C25.7264591,20.235557 28.5487349,16.4914622 28.6163119,12.2296404 C28.6838889,7.96781874 25.9816949,4.13881309 21.9013043,2.71448276 L21.8802899,2.71448276 Z"/>
    <path stroke="#000000" stroke-width="1.655" d="M23.9144928,12.1572414 C23.9540636,9.09657676 21.945017,6.37452426 18.976087,5.4662069 C18.7121063,5.41037035 18.4485233,5.56227926 18.368735,5.81623772 C18.2889467,6.07019619 18.4193774,6.34209826 18.6692754,6.44275862 C21.2047045,7.2069907 22.9215581,9.5295072 22.8806494,12.1397999 C22.8397406,14.7500926 21.0509243,17.0193533 18.4927536,17.7062069 C18.2420088,17.7707098 18.0785259,18.0080381 18.1104094,18.2612564 C18.142293,18.5144747 18.3596882,18.7053166 18.6188406,18.7075862 C18.6676785,18.7136884 18.7171041,18.7136884 18.765942,18.7075862 C21.7658476,17.8871978 23.8605777,15.2221362 23.9144928,12.1572414 Z"/>
  </g>
</svg>
