<svg xmlns="http://www.w3.org/2000/svg" width="18" height="28" viewBox="0 0 18 28">
  <path fill="#000000" fill-rule="evenodd" stroke="#000000" stroke-width="1.733" d="M15.9998081,24.4294971 L15.9998081,1.52684357 C15.9998081,0.683591151 15.3073892,0 14.4532471,0 L1.54719577,0 C0.693053729,-8.47568444e-17 0.000634794768,0.683591151 0.000634794768,1.52684357 L0.000634794768,24.4294971 C-0.0182704746,25.0832308 0.386649824,25.676254 1.00756156,25.9041848 C1.6284733,26.1321156 2.32747164,25.9443303 2.74578053,25.4372139 L6.8093695,20.7574384 C7.10322411,20.4128384 7.53621412,20.2139283 7.99248864,20.2139283 C8.44876317,20.2139283 8.88175318,20.4128384 9.17560779,20.7574384 L13.2546624,25.4181284 C13.6708137,25.9221658 14.3646626,26.110685 14.9834425,25.8878389 C15.6022223,25.6649928 16.0101424,25.0796848 15.9998081,24.4294971 Z" transform="translate(1 1)"/>
</svg>
