<svg xmlns="http://www.w3.org/2000/svg" width="79" height="29" viewBox="0 0 79 29">
  <path fill="#FFFFFF" d="M74.0304351,10.8449931 C74.0304351,12.3989026 73.1545272,14.2441701 71.0945217,14.2441701 L70.2348343,14.2441701 L71.1918448,10.3270233 C71.4027115,9.45294925 71.6622397,9.16159122 72.5381476,9.16159122 C73.5924812,9.16159122 74.0304351,9.67956104 74.0304351,10.8449931 M78.1666667,20.2170096 C78.1666667,20.0875171 78.1342256,20.0065844 78.0369025,19.9903978 C76.6581587,19.5695473 75.976897,18.9058985 75.44162,17.7566529 L73.8357889,14.5193416 C75.5227226,14.1794239 77.5016255,12.8521262 77.5016255,11.1525377 C77.5016255,9.08065844 75.7660303,8.19039781 72.92744,8.19039781 C71.8082244,8.19039781 70.5430241,8.31989026 69.5211316,8.31989026 C68.3532545,8.31989026 67.7044338,8.19039781 66.5041157,8.19039781 C66.3743515,8.19039781 66.2770284,8.5303155 66.2770284,8.7569273 C66.2770284,8.83786008 66.3094695,9.04828532 66.3743515,9.04828532 C67.5260082,9.22633745 67.8504185,9.56625514 67.8504185,10.1975309 C67.8504185,10.4079561 67.8017569,10.6831276 67.7206544,11.0068587 L66.1148233,17.6919067 C65.855295,18.8573388 65.7579719,19.4076818 64.0548177,19.6342936 C63.9574946,19.6666667 63.843951,19.9742112 63.843951,20.1522634 C63.843951,20.3303155 63.8926126,20.4921811 63.9412741,20.4921811 C65.0280487,20.4921811 66.0012797,20.3626886 67.1853773,20.3626886 C68.401916,20.3626886 69.4724701,20.4921811 70.6727883,20.4921811 C70.8025524,20.4921811 70.883655,20.1360768 70.883655,19.9256516 C70.883655,19.8447188 70.8512139,19.6342936 70.8025524,19.6342936 C69.6508958,19.4562414 69.3264854,19.1486968 69.3264854,18.485048 C69.3264854,18.2746228 69.375147,17.9994513 69.4562496,17.6757202 L70.0726292,15.0858711 C70.6241267,15.0858711 70.9323165,15.2477366 71.1431832,15.7009602 L73.3816144,20.4436214 C74.971225,20.4436214 76.8365844,20.5407407 77.7287127,20.7997257 C77.8746974,20.8320988 78.1666667,20.5731139 78.1666667,20.2170096 M64.5414332,8.17421125 C63.3897766,8.22277092 61.5244172,8.3037037 60.2754375,8.3037037 C59.0264578,8.3037037 55.1497544,8.22277092 54.192744,8.17421125 C54.0954209,8.17421125 53.9818773,8.46556927 53.9818773,8.74074074 C53.9818773,8.82167353 54.0143183,9.03209877 54.0629799,9.03209877 C55.230857,9.21015089 55.5714879,9.55006859 55.5714879,10.1813443 C55.5714879,10.3917695 55.5228263,10.666941 55.4417237,10.9906722 L53.8358926,17.6757202 C53.5439234,18.8411523 53.4466003,19.3914952 51.7758871,19.618107 C51.646123,19.6504801 51.5487999,19.9580247 51.5487999,20.1360768 C51.5487999,20.3141289 51.5974614,20.4759945 51.646123,20.4759945 C52.7653386,20.4274348 56.8529086,20.3465021 58.3289756,20.3465021 C59.8050425,20.3465021 61.5568583,20.4274348 62.8707201,20.4759945 C63.1626894,19.18107 63.5195407,17.5786008 63.8601715,16.4293553 C63.9088331,16.2998628 63.5682023,16.0894376 63.341115,16.0894376 C63.2437919,16.0894376 63.0815868,16.0894376 63.0491457,16.1379973 C62.5300892,17.9347051 61.1837864,19.3753086 59.2048834,19.3753086 L57.8748011,19.3753086 C57.2584215,19.3753086 57.0151138,19.1163237 57.0151138,18.630727 C57.0151138,18.4203018 57.0637753,17.9832647 57.1448779,17.6757202 L57.8910217,14.503155 L58.6696064,14.503155 C59.9510272,14.503155 60.5349658,14.9725652 60.3403196,16.623594 C60.3403196,16.7045267 60.5025247,16.7854595 60.729612,16.7854595 C60.8593761,16.7854595 61.0702428,16.7530864 61.0864633,16.623594 C61.3135505,15.636214 61.3946531,15.0211248 61.6379608,14.0823045 C61.8488276,13.1434842 61.9785917,12.8035665 62.2056789,11.8323731 C62.2381199,11.7514403 62.0272532,11.6705075 61.8488276,11.6705075 C61.6866224,11.6705075 61.4919762,11.7514403 61.4595352,11.8323731 C60.9080376,13.3862826 59.9996887,13.5643347 58.9129142,13.5643347 L58.1343294,13.5643347 L58.8318116,10.6021948 C59.0913398,9.48532236 59.5779553,9.25871056 60.1781144,9.25871056 L60.7458325,9.25871056 C62.5463097,9.25871056 63.3897766,10.375583 63.5195407,12.1075446 C63.5195407,12.1884774 63.7466279,12.2694102 63.9412741,12.2694102 C64.1034793,12.2694102 64.3630075,12.1884774 64.3630075,12.1075446 C64.3305665,11.6705075 64.3305665,10.6831276 64.3630075,10.2460905 C64.3792281,9.63100137 64.4603306,8.90260631 64.5414332,8.17421125 M53.4141592,7.99615912 C52.5382514,8.17421125 51.3379332,8.3037037 47.15304,8.3037037 C43.000588,8.3037037 41.7678287,8.17421125 40.8919209,7.99615912 C40.5837311,9.40438957 40.0808951,11.0392318 39.5942796,12.3989026 C39.545618,12.4960219 39.7240437,12.6093278 39.9511309,12.6093278 C40.1619976,12.6093278 40.3728644,12.5283951 40.3890849,12.3989026 C41.0054645,10.9259259 42.5788545,9.25871056 43.8764958,9.25871056 L44.3468908,9.25871056 C44.9957114,9.25871056 45.2552397,9.4691358 45.0930345,10.1165981 L43.2925572,17.6595336 C43.000588,18.8573388 42.9843674,19.3429355 41.1676696,19.6019204 C41.0703465,19.6342936 40.9568029,19.9418381 40.9568029,20.1198903 C40.9568029,20.2979424 41.0054645,20.459808 41.0379055,20.459808 C42.1246801,20.459808 43.1627931,20.3303155 44.3631113,20.3303155 C45.57965,20.3303155 46.7799682,20.459808 47.9965069,20.459808 C48.126271,20.459808 48.2073736,20.1037037 48.2073736,19.8932785 C48.2073736,19.8123457 48.1749326,19.6019204 48.126271,19.6019204 C46.8286297,19.4238683 46.4879989,19.0839506 46.4879989,18.4364883 C46.4879989,18.2260631 46.5366604,17.9670782 46.617763,17.6595336 L48.4182403,10.1165981 C48.5804455,9.4691358 48.8399737,9.25871056 49.5050149,9.25871056 L49.634779,9.25871056 C51.0135229,9.25871056 51.9705333,10.4727023 52.0191949,12.4474623 C52.0191949,12.5445816 52.2462821,12.6093278 52.4084872,12.6093278 C52.5869129,12.6093278 52.8302207,12.5607682 52.8464412,12.4474623 C52.9437643,11.2010974 53.187072,9.29108368 53.4141592,7.99615912 M40.3728644,16.0894376 C40.4215259,15.9599451 40.1619976,15.7495199 39.9024694,15.7495199 C39.6916027,15.7495199 39.5942796,15.7980796 39.5618386,15.8466392 C38.7832538,17.7080933 36.934115,19.3753086 34.9389915,19.3753086 L34.3712734,19.3753086 C33.7711143,19.3753086 33.5115861,19.1486968 33.5115861,18.5983539 C33.5115861,18.3879287 33.5602476,17.9832647 33.6413502,17.6595336 L35.2471813,10.9744856 C35.5391506,9.8090535 35.6364737,9.25871056 37.3234073,9.03209877 C37.4207304,8.99972565 37.5342741,8.69218107 37.5342741,8.51412894 C37.5342741,8.33607682 37.4856125,8.17421125 37.4531715,8.17421125 C36.3663969,8.17421125 35.458048,8.3037037 34.2577298,8.3037037 C33.0411911,8.3037037 31.8895345,8.17421125 30.6729958,8.17421125 C30.5918932,8.17421125 30.4621291,8.46556927 30.4621291,8.74074074 C30.4621291,8.82167353 30.4945701,9.03209877 30.5594522,9.03209877 C31.7111088,9.21015089 32.0355191,9.55006859 32.0355191,10.1813443 C32.0355191,10.3917695 31.9868576,10.666941 31.905755,10.9906722 L30.2999239,17.6757202 C30.0403957,18.8411523 29.9430726,19.3914952 28.2399184,19.618107 C28.1101543,19.6504801 28.0128312,19.9580247 28.0128312,20.1360768 C28.0128312,20.3141289 28.0614927,20.4759945 28.1101543,20.4759945 C29.2293699,20.4274348 32.6356782,20.3465021 34.0955247,20.3465021 C35.5715916,20.3465021 37.6315972,20.4274348 38.9616795,20.4759945 C39.3185308,19.1972565 39.9511309,17.1415638 40.3728644,16.0894376 M29.391575,8.51412894 C29.391575,8.33607682 29.3429135,8.17421125 29.2942519,8.17421125 C28.2074773,8.17421125 27.315349,8.3037037 26.1150308,8.3037037 C24.8984921,8.3037037 23.7468354,8.17421125 22.5465173,8.17421125 C22.4167531,8.17421125 22.31943,8.51412894 22.31943,8.74074074 C22.31943,8.82167353 22.3518711,9.03209877 22.4167531,9.03209877 C23.5684098,9.21015089 23.8928201,9.55006859 23.8928201,10.1813443 C23.8928201,10.3917695 23.8441585,10.666941 23.763056,10.9906722 L22.1572249,17.6757202 C21.8976966,18.8411523 21.8003735,19.3914952 20.0972193,19.618107 C19.9998962,19.6504801 19.8863526,19.9580247 19.8863526,20.1360768 C19.8863526,20.3141289 19.9350142,20.4759945 19.9674552,20.4759945 C21.0542298,20.4759945 22.0436813,20.3465021 23.2439994,20.3465021 C24.4605381,20.3465021 25.4986512,20.4759945 26.7314104,20.4759945 C26.8287335,20.4759945 26.9422771,20.1198903 26.9422771,19.909465 C26.9422771,19.8285322 26.9098361,19.618107 26.8611745,19.618107 C25.7095179,19.4400549 25.3526665,19.1325103 25.3526665,18.4688615 C25.3526665,18.2584362 25.4337691,17.9832647 25.4824307,17.6595336 L27.0882617,10.9744856 C27.380231,9.8090535 27.4775541,9.25871056 29.1482673,9.03209877 C29.2942519,8.99972565 29.391575,8.69218107 29.391575,8.51412894 M26.1799128,2.67078189 C26.1799128,0.938820302 25.4337691,0 24.4118766,0 C23.5846303,0 22.9358096,0.696021948 22.9358096,1.55390947 C22.9358096,2.49272977 24.3145535,2.80027435 24.3145535,3.57722908 C24.3145535,4.3218107 23.9739227,4.95308642 22.8547071,4.95308642 C19.9674552,4.95308642 16.5935879,2.1042524 12.1167255,2.1042524 C8.24002213,2.1042524 4.70394964,5.34156379 4.70394964,8.69218107 C4.70394964,10.7640604 5.85560628,11.8809328 7.47765788,11.8809328 C8.51577091,11.8809328 9.34301722,11.1525377 9.34301722,10.2460905 C9.34301722,8.12565158 6.69907311,9.33964335 6.69907311,6.89547325 C6.69907311,5.39012346 8.11025801,4.41893004 10.6893201,4.41893004 C11.3381407,4.41893004 11.9869613,4.5484225 12.635782,4.72647462 L9.39167877,18.4526749 C7.88317078,24.7816187 6.42332434,25.8984911 5.12568306,25.8984911 C3.8442623,25.8984911 3.87670333,23.4381344 1.84913883,23.4381344 C0.762364253,23.4381344 0,24.182716 0,25.2510288 C0,26.6592593 1.54094902,27.5333333 3.56851352,27.5333333 C8.09403749,27.5333333 12.0680639,23.454321 13.4468078,17.7242798 L14.5660234,13.1272977 L16.9179982,13.1272977 C18.4589472,13.1272977 19.1239884,13.7262003 18.8644601,16.0246914 C18.8320191,16.1218107 19.0266653,16.2351166 19.3348551,16.2351166 C19.5132808,16.2351166 19.7565885,16.1865569 19.8052501,16.0246914 C20.1134399,14.7297668 20.2269835,13.8718793 20.5027322,12.6578875 C20.7947015,11.4438957 20.9731272,10.9906722 21.281317,9.6957476 C21.313758,9.56625514 21.0542298,9.48532236 20.810922,9.48532236 C20.6000553,9.48532236 20.3729681,9.56625514 20.3405271,9.6957476 C19.6106039,11.7190672 18.7509165,12.0751715 17.1613059,12.0751715 L14.8093311,12.0751715 L16.2691776,5.84334705 C17.5992599,6.40987654 19.1239884,6.91165981 20.5513938,6.91165981 C23.6819534,6.92784636 26.1799128,5.16351166 26.1799128,2.67078189" transform="translate(0 .717)"/>
</svg>
