<?xml version="1.0" encoding="UTF-8"?>
<svg width="16px" height="16px" viewBox="0 0 16 16" version="1.1" xmlns="http://www.w3.org/2000/svg" xmlns:xlink="http://www.w3.org/1999/xlink">
    <!-- Generator: Sketch 51.3 (57544) - http://www.bohemiancoding.com/sketch -->
    <title>musica-searcher</title>
    <desc>Created with Sketch.</desc>
    <defs></defs>
    <g id="Symbols" stroke="none" stroke-width="1" fill="none" fill-rule="evenodd">
        <g id="menu/seachbar" transform="translate(-16.000000, -8.000000)" fill="#000000" fill-rule="nonzero">
            <g id="Group-4">
                <g id="musica-searcher" transform="translate(16.000000, 8.000000)">
                    <path d="M15.6084247,13.7175365 L12.1325066,10.2416824 C12.1140337,10.2232094 12.0923647,10.2102975 12.0730608,10.193103 C12.7570073,9.15561379 13.1561891,7.91370769 13.1561891,6.57815846 C13.1561891,2.94512448 10.2110646,0 6.57809454,0 C2.94512448,0 0,2.94512448 0,6.57809454 C0,10.2110007 2.94506056,13.1561891 6.57803062,13.1561891 C7.91364377,13.1561891 9.15548595,12.7570073 10.1929752,12.0730608 C10.2101697,12.0923008 10.2230177,12.1139698 10.2414906,12.1324427 L13.7174726,15.6084247 C14.2396369,16.1305251 15.0861964,16.1305251 15.6084247,15.6084247 C16.1305251,15.0862603 16.1305251,14.2397009 15.6084247,13.7175365 Z M6.57809454,10.875771 C4.20448081,10.875771 2.28035412,8.95164435 2.28035412,6.57809454 C2.28035412,4.20448081 4.20454473,2.28035412 6.57809454,2.28035412 C8.95158043,2.28035412 10.875771,4.20454473 10.875771,6.57809454 C10.875771,8.95164435 8.95158043,10.875771 6.57809454,10.875771 Z" id="Shape"></path>
                </g>
            </g>
        </g>
    </g>
</svg>