<?xml version="1.0" encoding="UTF-8"?>
<svg width="17px" height="14px" viewBox="0 0 17 14" version="1.1" xmlns="http://www.w3.org/2000/svg" xmlns:xlink="http://www.w3.org/1999/xlink">
    <!-- Generator: Sketch 51.3 (57544) - http://www.bohemiancoding.com/sketch -->
    <title>Group 3</title>
    <desc>Created with Sketch.</desc>
    <defs></defs>
    <g id="Symbols" stroke="none" stroke-width="1" fill="none" fill-rule="evenodd">
        <g id="button/option/checkbox/sound/white" transform="translate(-4.000000, -5.000000)" fill-rule="nonzero">
            <g id="Group-3" transform="translate(4.000000, 5.000000)">
                <g id="icon_black_sound" transform="translate(0.000000, 0.437500)">
                    <path d="M8.26666667,0.264762931 C7.99424565,0.107405953 7.65560942,0.107405953 7.38318841,0.264762931 L7.34376812,0.291918103 L3.41797101,3.42607759 L0.377971014,3.3762931 C0.301926733,3.37508389 0.22853703,3.40356376 0.174109299,3.45540442 C0.119681567,3.50724507 0.0887241759,3.57815243 0.088115942,3.65237069 L-8.78610336e-17,8.95215517 C-0.00197651819,9.02590352 0.027399707,9.09716382 0.0811594203,9.14903017 C0.133190601,9.20254352 0.205003433,9.2335097 0.28057971,9.23502155 L3.31362319,9.27801724 L7.12811594,12.8081897 C7.14116855,12.8213889 7.15598856,12.8328068 7.17217391,12.8421336 C7.30680531,12.9256345 7.46252611,12.9710677 7.62202899,12.9733836 C7.77335495,12.9758008 7.922744,12.9399387 8.05565217,12.8692888 C8.3411629,12.7166234 8.51887982,12.4243905 8.51942029,12.106681 L8.70492754,1.03642241 C8.71246475,0.720813939 8.54491037,0.42579576 8.26666667,0.264762931 Z" id="Shape" fill="#FFFFFF"></path>
                    <path d="M12.0718841,1.48448276 C11.9757848,1.45093136 11.8686437,1.46996081 11.7908198,1.53440289 C11.712996,1.59884498 11.6763126,1.69890941 11.6945879,1.79690289 C11.7128633,1.89489638 11.783321,1.97593136 11.8794203,2.00948276 C13.8961251,2.71126913 15.2306001,4.58887112 15.1975513,6.67808219 C15.1645025,8.76729327 13.7712747,10.6038019 11.7333333,11.2445043 C11.5944905,11.2837913 11.507723,11.4182362 11.5313928,11.5574083 C11.5550626,11.6965803 11.6816834,11.796462 11.826087,11.7898707 C11.8575307,11.7899509 11.8888048,11.7853729 11.9188406,11.7762931 C14.1939085,11.0663202 15.7510262,9.01876837 15.78831,6.68808462 C15.8255939,4.35740088 14.3347282,2.26341341 12.0834783,1.48448276 L12.0718841,1.48448276 Z" id="Shape" stroke="#FFFFFF" stroke-width="0.91954023"></path>
                    <path d="M13.1942029,6.64849138 C13.2160351,4.97469042 12.1075956,3.48606795 10.4695652,2.9893319 C10.3239207,2.95879628 10.1784956,3.04187147 10.1344745,3.18075501 C10.0904534,3.31963854 10.1624151,3.46833499 10.3002899,3.52338362 C11.6991473,3.94132304 12.6463769,5.21144925 12.6238066,6.63895306 C12.6012362,8.06645688 11.6143031,9.30745885 10.2028986,9.6830819 C10.0645566,9.71835693 9.9743591,9.84814586 9.99195002,9.98662461 C10.0095409,10.1251034 10.1294831,10.22947 10.2724638,10.2307112 C10.2994088,10.2340483 10.3266781,10.2340483 10.3536232,10.2307112 C12.0087435,9.78206129 13.1644567,8.32460574 13.1942029,6.64849138 Z" id="Shape" stroke="#FFFFFF" stroke-width="0.91954023"></path>
                </g>
            </g>
        </g>
    </g>
</svg>