<svg xmlns="http://www.w3.org/2000/svg" width="53" height="38" viewBox="0 0 53 38" xmlns:xlink="http://www.w3.org/1999/xlink">
  <defs>
    <ellipse id="b" cx="34.5" cy="14.258" rx="14.5" ry="14.258"/>
    <filter id="a" width="148.3%" height="149.1%" x="-27.6%" y="-24.5%" filterUnits="objectBoundingBox">
      <feMorphology radius=".5" operator="dilate" in="SourceAlpha" result="shadowSpreadOuter1"/>
      <feOffset dx="-1" in="shadowSpreadOuter1" result="shadowOffsetOuter1"/>
      <feGaussianBlur stdDeviation="2" in="shadowOffsetOuter1" result="shadowBlurOuter1"/>
      <feComposite in="shadowBlurOuter1" in2="SourceAlpha" operator="out" result="shadowBlurOuter1"/>
      <feColorMatrix values="0 0 0 0 0 0 0 0 0 0 0 0 0 0 0 0 0 0 0.5 0" in="shadowBlurOuter1"/>
    </filter>
  </defs>
  <g fill="none" fill-rule="evenodd" transform="translate(1 4.733)">
    <rect width="49" height="28.517" fill="#000000" stroke="#FFFFFF" rx="14.258"/>
    <use fill="black" filter="url(#a)" xlink:href="#b"/>
    <use fill="#FFFFFF" stroke="#000000" xlink:href="#b"/>
    <g fill="#000000" fill-rule="nonzero" transform="translate(26 5)">
      <ellipse cx="9.123" cy="8.85" rx="4.527" ry="4.513"/>
      <path d="M9.12328767 5.31983333C11.0788296 5.31983333 12.6641096 6.90034279 12.6641096 8.85 12.6641096 10.7996572 11.0788296 12.3801667 9.12328767 12.3801667 7.16774572 12.3801667 5.58246575 10.7996572 5.58246575 8.85 5.58382574 6.90090469 7.16830933 5.32118923 9.12328767 5.31983333zM9.12328767 3.35316667C6.07830731 3.35316667 3.60986301 5.81418278 3.60986301 8.85 3.60986301 11.8858172 6.07830731 14.3468333 9.12328767 14.3468333 12.168268 14.3468333 14.6367123 11.8858172 14.6367123 8.85 14.6367123 7.39214916 14.0558353 5.99400809 13.0218676 4.96315187 11.9878999 3.93229566 10.5855388 3.35316667 9.12328767 3.35316667zM16.8310718 9.00625C16.7351909 8.99519709 16.6628304 8.91401589 16.6628304 8.8175 16.6628304 8.72098411 16.7351909 8.63980291 16.8310718 8.62875 16.9269527 8.63980291 16.9993132 8.72098411 16.9993132 8.8175 16.9993132 8.91401589 16.9269527 8.99519709 16.8310718 9.00625z"/>
      <path d="M16.8287671 7.64541667C16.3538272 7.64442189 15.9250979 7.92889228 15.7426545 8.36607391 15.5602111 8.80325554 15.6600182 9.30696777 15.9954989 9.64214301 16.3309795 9.97731825 16.8360011 10.0778841 17.274885 9.89690957 17.7137689 9.71593499 17.999999 9.28909506 18 8.81558333 18.0006549 8.50546211 17.8775466 8.20781899 17.6578268 7.98829921 17.438107 7.76877944 17.1398251 7.64541598 16.8287671 7.64541667zM1.4201129 9.07754167C1.32423198 9.06648876 1.25187151 8.98530756 1.25187151 8.88879167 1.25187151 8.79227578 1.32423198 8.71109457 1.4201129 8.70004167 1.51599381 8.71109457 1.58835428 8.79227578 1.58835428 8.88879167 1.58835428 8.98530756 1.51599381 9.06648876 1.4201129 9.07754167z"/>
      <path d="M1.41780822 7.71670833C.942644142 7.71571413.51375918 8.00045105.331460813 8.43793486.149162446 8.87541867.249422309 9.37932382.58541479 9.71430521.921407271 10.0492866 1.42683338 10.1492448 1.86563766 9.96749497 2.30444194 9.78574519 2.5900383 9.35815085 2.5890411 8.88441667 2.5890411 8.23950916 2.06466228 7.71670833 1.41780822 7.71670833zM14.5972603 14.4490412C14.5117015 14.450704 14.4358997 14.3933912 14.4130658 14.3097739 14.3902319 14.2261566 14.4261668 14.1374777 14.5003857 14.0942886 14.5746047 14.0510996 14.6682525 14.0643725 14.7279452 14.1265412 14.7990304 14.201144 14.7990304 14.3194384 14.7279452 14.3940412 14.6934533 14.4294502 14.6463452 14.4492762 14.5972603 14.4490412z"/>
      <path d="M14.5972603 13.0881667C14.0385121 13.0884581 13.5577751 13.4822061 13.4490345 14.0286216 13.3402939 14.5750372 13.6338335 15.1219457 14.150145 15.3348961 14.6664564 15.5478465 15.261749 15.3675328 15.5719832 14.9042224 15.8822174 14.440912 15.8209942 13.823635 15.4257534 13.429875 15.2056742 13.2113805 14.9078455 13.0885424 14.5972603 13.0881667zM3.65187061 3.6347498C3.60210399 3.63498478 3.55434158 3.61515887 3.51937061 3.5797498 3.44729809 3.50514701 3.44729809 3.3868526 3.51937061 3.3122498 3.57995611 3.25386804 3.67201309 3.24299247 3.74453521 3.28564896 3.81705733 3.32830545 3.85228489 3.414048 3.83069923 3.49536893 3.80911357 3.57668986 3.73600074 3.63367476 3.65187061 3.6347498z"/>
      <path d="M3.64931507 2.27395833C3.08929637 2.27259056 2.60631801 2.66586953 2.49581643 3.21322763 2.38531485 3.76058574 2.67807539 4.30953105 3.19501727 4.52427533 3.71195916 4.73901962 4.30906431 4.5597359 4.62108525 4.09609152 4.93310618 3.63244714 4.87311504 3.01361169 4.47780822 2.618125 4.25843848 2.39827266 3.96036188 2.27444782 3.64931507 2.27395833zM14.5493534 3.65441674C14.4464408 3.65441674 14.3630137 3.57047013 14.3630137 3.46691674 14.3630137 3.36336335 14.4464408 3.27941674 14.5493534 3.27941674 14.5995636 3.27907155 14.6478427 3.29886331 14.683518 3.33441674 14.7561789 3.40762113 14.7561789 3.52621235 14.683518 3.59941674 14.6478427 3.63497018 14.5995636 3.65476193 14.5493534 3.65441674z"/>
      <path d="M14.5479452 2.29608333C13.9891971 2.29637481 13.50846 2.69012273 13.3997194 3.23653828 13.2909788 3.78295383 13.5845184 4.3298624 14.1008299 4.54281278 14.6171414 4.75576316 15.2124339 4.57544951 15.5226681 4.11213909 15.8329023 3.64882867 15.7716791 3.03155165 15.3764384 2.63779167 15.1568182 2.4186114 14.8586915 2.29565039 14.5479452 2.29608333zM3.69863014 14.5694792C3.62700421 14.5778508 3.55699325 14.5438168 3.51858129 14.4819532 3.48016933 14.4200896 3.48016933 14.3413689 3.51858129 14.2795053 3.55699325 14.2176417 3.62700421 14.1836077 3.69863014 14.1919792 3.74771502 14.1917443 3.79482315 14.2115702 3.82931507 14.2469792 3.90040029 14.321582 3.90040029 14.4398764 3.82931507 14.5144792 3.79482315 14.5498883 3.74771502 14.5697142 3.69863014 14.5694792z"/>
      <path d="M3.69863014,13.208625 C3.26692123,13.1888816 2.8592548,13.4072612 2.6374802,13.7770638 C2.4157056,14.1468664 2.4157056,14.6082586 2.6374802,14.9780612 C2.8592548,15.3478638 3.26692123,15.5662434 3.69863014,15.5465 C4.32527477,15.5178416 4.81854651,15.0029783 4.81854651,14.3775625 C4.81854651,13.7521467 4.32527477,13.2372834 3.69863014,13.208625 Z"/>
      <circle cx="9.16" cy="16.535" r="1"/>
      <path d="M9.15780822,15.3645833 C8.51127689,15.3659404 7.98813531,15.8893406 7.98904225,16.5339271 C7.98994919,17.1785136 8.51456156,17.7004485 9.16109416,17.6999971 C9.80762676,17.6995457 10.3315054,17.1768788 10.3315068,16.5322917 C10.3315075,16.2221698 10.2077717,15.9247854 9.98758937,15.7057268 C9.76740701,15.4866682 9.46886549,15.3639304 9.15780822,15.3645833 Z"/>
      <circle cx="9.091" cy="1.171" r="1"/>
      <path d="M9.08876712,0 C8.44191307,-3.94891956e-17 7.91753425,0.522800829 7.91753425,1.16770833 C7.91753425,1.81261584 8.44191307,2.33541667 9.08876712,2.33541667 C9.73562118,2.33541667 10.26,1.81261584 10.26,1.16770833 C10.2586437,0.523361781 9.73505853,0.00135225326 9.08876712,0 Z"/>
    </g>
  </g>
</svg>
