<svg xmlns="http://www.w3.org/2000/svg" width="56" height="145" viewBox="0 0 56 145" xmlns:xlink="http://www.w3.org/1999/xlink">
  <defs>
    <path id="b" d="M48,113 C48,126.254834 37.254834,137 24,137 C10.745166,137 0,126.254834 0,113 L0,24 C0,10.745166 10.745166,0 24,0 C37.254834,0 48,10.745166 48,24 L48,113 Z"/>
    <filter id="a" width="127.1%" height="109.5%" x="-13.5%" y="-4%" filterUnits="objectBoundingBox">
      <feOffset dy="1" in="SourceAlpha" result="shadowOffsetOuter1"/>
      <feGaussianBlur stdDeviation="2" in="shadowOffsetOuter1" result="shadowBlurOuter1"/>
      <feColorMatrix values="0 0 0 0 0 0 0 0 0 0 0 0 0 0 0 0 0 0 0.5 0" in="shadowBlurOuter1"/>
    </filter>
    <circle id="d" cx="24" cy="24" r="24"/>
    <filter id="c" width="127.1%" height="127.1%" x="-13.5%" y="-11.5%" filterUnits="objectBoundingBox">
      <feOffset dy="1" in="SourceAlpha" result="shadowOffsetOuter1"/>
      <feGaussianBlur stdDeviation="2" in="shadowOffsetOuter1" result="shadowBlurOuter1"/>
      <feColorMatrix values="0 0 0 0 0 0 0 0 0 0 0 0 0 0 0 0 0 0 0.5 0" in="shadowBlurOuter1"/>
    </filter>
  </defs>
  <g fill="none" fill-rule="evenodd" transform="translate(4 3)">
    <use fill="black" filter="url(#a)" xlink:href="#b"/>
    <use fill="#E0AB9B" xlink:href="#b"/>
    <text fill="#000000" opacity=".87" font-family="Roboto-Regular, Roboto" font-size="34" letter-spacing=".25">
      <tspan x="14" y="36">+</tspan>
    </text>
    <text fill="#000000" opacity=".87" font-family="Roboto-Regular, Roboto" font-size="34" letter-spacing=".25">
      <tspan x="13" y="76">–</tspan>
    </text>
    <g fill="#000000" fill-rule="nonzero" transform="translate(11 102)">
      <path d="M2.20459821 16.6666667L1.36759821 19.1740741C1.2737094 19.4593227 1.00519309 19.6522081.702482143 19.6518519.476403205 19.6516511.264238456 19.5436134.132412696 19.3615634.000586935571 19.1795133-.0347869006 18.9457028.0373660714 18.7333333L3.34052679 9.1037037C3.43766374 8.82134256 3.70467061 8.63102836 4.00564286 8.62962963L4.73428125 8.62962963C5.0352535 8.63102836 5.30226037 8.82134256 5.39939732 9.1037037L8.71750446 18.7333333C8.78965744 18.9457028 8.7542836 19.1795133 8.62245784 19.3615634 8.49063208 19.5436134 8.27846733 19.6516511 8.05238839 19.6518519L8.00007589 19.6518519C7.69971842 19.6521233 7.43241615 19.463087 7.33495982 19.1814815L6.47180357 16.6666667C6.37434724 16.3850611 6.10704498 16.1960249 5.8066875 16.1962963L2.86971429 16.1962963C2.56935681 16.1960249 2.30205455 16.3850611 2.20459821 16.6666667zM5.03320982 15.0777778C5.25928876 15.077577 5.47145351 14.9695393 5.60327927 14.7874893 5.73510503 14.6054393 5.77047886 14.3716287 5.69832589 14.1592593L4.92111161 11.9037037C4.67449554 11.1851852 4.51008482 10.5296296 4.34567411 9.89259259L4.31204464 9.89259259C4.14763393 10.5444444 3.96454018 11.2185185 3.75155357 11.8888889L2.98928571 14.1518519C2.91713274 14.3642213 2.95250658 14.5980319 3.08433234 14.7800819 3.2161581 14.9621319 3.42832285 15.0701696 3.65440179 15.0703704L5.03320982 15.0777778zM14.6026607 14.0740741L12.8950312 19.1740741C12.8011424 19.4593227 12.5326261 19.6522081 12.2299152 19.6518519L11.108933 19.6518519C10.8861661 19.6458071 10.6795064 19.5353525 10.552007 19.3541882 10.4245076 19.173024 10.3912941 18.9426421 10.4625 18.7333333L16.5942723.818518519C16.6893443.536775991 16.9559298.347181464 17.2556518.348148148L19.2883661.348148148C19.587717.348327399 19.8536971.537491385 19.9497455.818518519L26.1188839 18.7333333C26.1910369 18.9457028 26.1556631 19.1795133 26.0238373 19.3615634 25.8920115 19.5436134 25.6798468 19.6516511 25.4537679 19.6518519L24.2505804 19.6518519C23.949856 19.6532647 23.6819511 19.4638022 23.5854643 19.1814815L21.8292589 14.0518519C21.7318026 13.7702463 21.4645003 13.58121 21.1641429 13.5814815L15.2677768 13.5814815C14.9610181 13.5831634 14.6912401 13.782964 14.6026607 14.0740741zM20.1776786 11.6333333C20.4037575 11.6331326 20.6159223 11.5250949 20.747748 11.3430448 20.8795738 11.1609948 20.9149476 10.9271842 20.8427946 10.7148148L19.2397902 6.07777778C18.8063437 4.81481481 18.518625 3.67037037 18.2271696 2.55185185L18.1711205 2.55185185C17.8796652 3.7037037 17.5620536 4.87407407 17.1883929 6.04814815L15.5928616 10.7148148C15.5207086 10.9271842 15.5560825 11.1609948 15.6879082 11.3430448 15.819734 11.5250949 16.0318987 11.6331326 16.2579777 11.6333333L20.1776786 11.6333333z"/>
    </g>
    <g transform="translate(0 89)">
      <use fill="black" filter="url(#c)" xlink:href="#d"/>
      <use fill="#FFFFFF" xlink:href="#d"/>
      <g fill="#000000" fill-rule="nonzero" transform="translate(11 13)">
        <path d="M2.20459821 16.6666667L1.36759821 19.1740741C1.2737094 19.4593227 1.00519309 19.6522081.702482143 19.6518519.476403205 19.6516511.264238456 19.5436134.132412696 19.3615634.000586935571 19.1795133-.0347869006 18.9457028.0373660714 18.7333333L3.34052679 9.1037037C3.43766374 8.82134256 3.70467061 8.63102836 4.00564286 8.62962963L4.73428125 8.62962963C5.0352535 8.63102836 5.30226037 8.82134256 5.39939732 9.1037037L8.71750446 18.7333333C8.78965744 18.9457028 8.7542836 19.1795133 8.62245784 19.3615634 8.49063208 19.5436134 8.27846733 19.6516511 8.05238839 19.6518519L8.00007589 19.6518519C7.69971842 19.6521233 7.43241615 19.463087 7.33495982 19.1814815L6.47180357 16.6666667C6.37434724 16.3850611 6.10704498 16.1960249 5.8066875 16.1962963L2.86971429 16.1962963C2.56935681 16.1960249 2.30205455 16.3850611 2.20459821 16.6666667zM5.03320982 15.0777778C5.25928876 15.077577 5.47145351 14.9695393 5.60327927 14.7874893 5.73510503 14.6054393 5.77047886 14.3716287 5.69832589 14.1592593L4.92111161 11.9037037C4.67449554 11.1851852 4.51008482 10.5296296 4.34567411 9.89259259L4.31204464 9.89259259C4.14763393 10.5444444 3.96454018 11.2185185 3.75155357 11.8888889L2.98928571 14.1518519C2.91713274 14.3642213 2.95250658 14.5980319 3.08433234 14.7800819 3.2161581 14.9621319 3.42832285 15.0701696 3.65440179 15.0703704L5.03320982 15.0777778zM14.6026607 14.0740741L12.8950312 19.1740741C12.8011424 19.4593227 12.5326261 19.6522081 12.2299152 19.6518519L11.108933 19.6518519C10.8861661 19.6458071 10.6795064 19.5353525 10.552007 19.3541882 10.4245076 19.173024 10.3912941 18.9426421 10.4625 18.7333333L16.5942723.818518519C16.6893443.536775991 16.9559298.347181464 17.2556518.348148148L19.2883661.348148148C19.587717.348327399 19.8536971.537491385 19.9497455.818518519L26.1188839 18.7333333C26.1910369 18.9457028 26.1556631 19.1795133 26.0238373 19.3615634 25.8920115 19.5436134 25.6798468 19.6516511 25.4537679 19.6518519L24.2505804 19.6518519C23.949856 19.6532647 23.6819511 19.4638022 23.5854643 19.1814815L21.8292589 14.0518519C21.7318026 13.7702463 21.4645003 13.58121 21.1641429 13.5814815L15.2677768 13.5814815C14.9610181 13.5831634 14.6912401 13.782964 14.6026607 14.0740741zM20.1776786 11.6333333C20.4037575 11.6331326 20.6159223 11.5250949 20.747748 11.3430448 20.8795738 11.1609948 20.9149476 10.9271842 20.8427946 10.7148148L19.2397902 6.07777778C18.8063438 4.81481481 18.518625 3.67037037 18.2271696 2.55185185L18.1711205 2.55185185C17.8796652 3.7037037 17.5620536 4.87407407 17.1883929 6.04814815L15.5928616 10.7148148C15.5207086 10.9271842 15.5560825 11.1609948 15.6879082 11.3430448 15.819734 11.5250949 16.0318987 11.6331326 16.2579777 11.6333333L20.1776786 11.6333333z"/>
      </g>
    </g>
  </g>
</svg>
