<?xml version="1.0" encoding="UTF-8"?>
<svg width="56px" height="56px" viewBox="0 0 56 56" version="1.1" xmlns="http://www.w3.org/2000/svg" xmlns:xlink="http://www.w3.org/1999/xlink">
    <!-- Generator: Sketch 51.3 (57544) - http://www.bohemiancoding.com/sketch -->
    <title>textsize</title>
    <desc>Created with Sketch.</desc>
    <defs>
        <circle id="path-1" cx="24" cy="24" r="24"></circle>
        <filter x="-13.5%" y="-11.5%" width="127.1%" height="127.1%" filterUnits="objectBoundingBox" id="filter-2">
            <feOffset dx="0" dy="1" in="SourceAlpha" result="shadowOffsetOuter1"></feOffset>
            <feGaussianBlur stdDeviation="2" in="shadowOffsetOuter1" result="shadowBlurOuter1"></feGaussianBlur>
            <feColorMatrix values="0 0 0 0 0   0 0 0 0 0   0 0 0 0 0  0 0 0 0.5 0" type="matrix" in="shadowBlurOuter1"></feColorMatrix>
        </filter>
    </defs>
    <g id="Symbols" stroke="none" stroke-width="1" fill="none" fill-rule="evenodd">
        <g id="button/option/fontsize" transform="translate(4.000000, 3.000000)">
            <g id="textsize">
                <g id="Float-textsize">
                    <use fill="black" fill-opacity="1" filter="url(#filter-2)" xlink:href="#path-1"></use>
                    <use fill="#FFFFFF" fill-rule="evenodd" xlink:href="#path-1"></use>
                </g>
                <g id="icon_black_size" transform="translate(11.000000, 13.000000)" fill="#000000" fill-rule="nonzero">
                    <path d="M2.20459821,16.6666667 L1.36759821,19.1740741 C1.2737094,19.4593227 1.00519309,19.6522081 0.702482143,19.6518519 C0.476403205,19.6516511 0.264238456,19.5436134 0.132412696,19.3615634 C0.000586935571,19.1795133 -0.0347869006,18.9457028 0.0373660714,18.7333333 L3.34052679,9.1037037 C3.43766374,8.82134256 3.70467061,8.63102836 4.00564286,8.62962963 L4.73428125,8.62962963 C5.0352535,8.63102836 5.30226037,8.82134256 5.39939732,9.1037037 L8.71750446,18.7333333 C8.78965744,18.9457028 8.7542836,19.1795133 8.62245784,19.3615634 C8.49063208,19.5436134 8.27846733,19.6516511 8.05238839,19.6518519 L8.00007589,19.6518519 C7.69971842,19.6521233 7.43241615,19.463087 7.33495982,19.1814815 L6.47180357,16.6666667 C6.37434724,16.3850611 6.10704498,16.1960249 5.8066875,16.1962963 L2.86971429,16.1962963 C2.56935681,16.1960249 2.30205455,16.3850611 2.20459821,16.6666667 Z M5.03320982,15.0777778 C5.25928876,15.077577 5.47145351,14.9695393 5.60327927,14.7874893 C5.73510503,14.6054393 5.77047886,14.3716287 5.69832589,14.1592593 L4.92111161,11.9037037 C4.67449554,11.1851852 4.51008482,10.5296296 4.34567411,9.89259259 L4.31204464,9.89259259 C4.14763393,10.5444444 3.96454018,11.2185185 3.75155357,11.8888889 L2.98928571,14.1518519 C2.91713274,14.3642213 2.95250658,14.5980319 3.08433234,14.7800819 C3.2161581,14.9621319 3.42832285,15.0701696 3.65440179,15.0703704 L5.03320982,15.0777778 Z" id="Shape"></path>
                    <path d="M14.6026607,14.0740741 L12.8950312,19.1740741 C12.8011424,19.4593227 12.5326261,19.6522081 12.2299152,19.6518519 L11.108933,19.6518519 C10.8861661,19.6458071 10.6795064,19.5353525 10.552007,19.3541882 C10.4245076,19.173024 10.3912941,18.9426421 10.4625,18.7333333 L16.5942723,0.818518519 C16.6893443,0.536775991 16.9559298,0.347181464 17.2556518,0.348148148 L19.2883661,0.348148148 C19.587717,0.348327399 19.8536971,0.537491385 19.9497455,0.818518519 L26.1188839,18.7333333 C26.1910369,18.9457028 26.1556631,19.1795133 26.0238373,19.3615634 C25.8920115,19.5436134 25.6798468,19.6516511 25.4537679,19.6518519 L24.2505804,19.6518519 C23.949856,19.6532647 23.6819511,19.4638022 23.5854643,19.1814815 L21.8292589,14.0518519 C21.7318026,13.7702463 21.4645003,13.58121 21.1641429,13.5814815 L15.2677768,13.5814815 C14.9610181,13.5831634 14.6912401,13.782964 14.6026607,14.0740741 Z M20.1776786,11.6333333 C20.4037575,11.6331326 20.6159223,11.5250949 20.747748,11.3430448 C20.8795738,11.1609948 20.9149476,10.9271842 20.8427946,10.7148148 L19.2397902,6.07777778 C18.8063437,4.81481481 18.518625,3.67037037 18.2271696,2.55185185 L18.1711205,2.55185185 C17.8796652,3.7037037 17.5620536,4.87407407 17.1883929,6.04814815 L15.5928616,10.7148148 C15.5207086,10.9271842 15.5560825,11.1609948 15.6879082,11.3430448 C15.819734,11.5250949 16.0318987,11.6331326 16.2579777,11.6333333 L20.1776786,11.6333333 Z" id="Shape"></path>
                </g>
            </g>
        </g>
    </g>
</svg>